<?xml version="1.0" encoding="UTF-8" standalone="no"?>
<!-- Created with Inkscape (http://www.inkscape.org/) -->

<svg
   width="706.854"
   height="401.80219"
   viewBox="0 0 187.02178 106.31016"
   version="1.1"
   id="svg1"
   xml:space="preserve"
   xmlns="http://www.w3.org/2000/svg"
   xmlns:svg="http://www.w3.org/2000/svg"><defs
     id="defs1" /><g
     id="layer1"
     transform="translate(-12.93833,-94.838497)"><path
       style="fill:#f1f5fc;fill-opacity:1"
       d="m 40.614244,201.06712 c 0,-0.0451 -0.64988,-1.94247 -1.444177,-4.21646 l -1.444176,-4.13452 0.91501,-0.30198 c 0.503255,-0.16609 0.915009,-0.39723 0.915009,-0.51365 0,-0.72484 -2.973502,-6.83329 -4.14684,-8.51883 -0.775175,-1.11356 -1.40941,-2.20093 -1.40941,-2.41636 0,-0.21548 2.707988,-2.21739 6.019271,-4.44982 5.152822,-3.47397 6.245339,-4.10472 7.589779,-4.38189 0.863779,-0.17808 1.658529,-0.26938 1.766111,-0.20289 0.107581,0.0665 0.50541,-0.0203 0.88406,-0.1928 0.53327,-0.24297 0.7604,-0.24175 1.00754,0.005 0.24904,0.24904 0.0297,0.59704 -0.99937,1.58554 -0.72514,0.69656 -1.642827,1.73442 -2.039309,2.30635 -0.396483,0.57194 -0.98311,1.36441 -1.303616,1.76105 -0.566528,0.70109 -0.569254,0.73605 -0.09801,1.25677 0.633243,0.69972 0.972737,0.67557 1.722525,-0.12254 0.460191,-0.48985 0.705546,-0.58575 0.959466,-0.37502 0.187634,0.15573 0.580694,0.20712 0.873454,0.1142 0.42002,-0.13331 0.50104,-0.32518 0.38413,-0.90972 -0.18943,-0.94715 1.16329,-2.59585 2.23091,-2.71906 0.57083,-0.0659 0.70121,-0.20576 0.64833,-0.69561 -0.0535,-0.4958 0.0308,-0.58236 0.44075,-0.45226 0.28074,0.0891 0.59682,0.0155 0.70835,-0.16498 0.11188,-0.18103 0.063,-0.37201 -0.11003,-0.42968 -0.17128,-0.0571 -0.31142,-0.26785 -0.31142,-0.46833 0,-0.46341 1.07781,-1.48107 1.44055,-1.36016 0.15062,0.0502 0.80001,-0.0671 1.44308,-0.26059 1.61656,-0.48652 3.40182,-0.43065 4.65699,0.14572 1.42886,0.65614 1.94967,1.30554 2.39113,2.98152 0.5056,1.91949 2.23157,3.40004 3.96365,3.40004 1.02274,0 1.93492,0.54949 2.20678,1.32935 0.22518,0.64596 0.14532,0.83111 -0.71444,1.65639 -1.33654,1.28294 -2.20551,1.40989 -4.14635,0.60574 l -1.5841,-0.65634 -0.4616,0.54437 c -0.58519,0.69011 -0.43895,0.91466 0.73969,1.13578 0.78073,0.14646 0.93101,0.27841 0.86281,0.75759 -0.0552,0.38765 -0.23862,0.5539 -0.55271,0.50087 -0.25858,-0.0437 -0.83328,0.28376 -1.27712,0.7276 -0.44384,0.44384 -1.03513,0.80698 -1.31398,0.80698 -0.85667,0 -4.31648,-2.31034 -4.65639,-3.10938 -0.2552,-0.5999 -0.34001,-0.64901 -0.48492,-0.28076 -0.0966,0.24547 -0.31484,0.39289 -0.48499,0.3276 -0.17016,-0.0653 -0.44923,0.10521 -0.62016,0.37891 -0.27988,0.44817 -0.10273,0.61286 1.78224,1.65678 1.15115,0.63753 2.09492,1.30638 2.09726,1.48632 0.002,0.17995 -0.41938,0.50418 -0.93715,0.72052 -0.51776,0.21634 -1.2619,0.61723 -1.65364,0.89088 -1.17888,0.82349 -5.67341,2.21862 -5.91068,1.83471 -0.62364,-1.00907 -1.56432,-4.28937 -1.41934,-4.94946 0.15579,-0.7093 0.11681,-0.74148 -1.058489,-0.87396 -0.734994,-0.0828 -1.461141,-0.36385 -1.826032,-0.70665 l -0.605792,-0.56911 -1.001497,1.10854 -1.001498,1.10854 1.196037,1.08357 c 1.137826,1.03084 1.242607,1.25136 2.15293,4.53089 0.526292,1.89602 0.956895,3.68523 0.956895,3.97602 0,0.72074 -0.771548,1.76993 -1.184915,1.6113 -0.399131,-0.15316 -2.350878,1.76117 -2.075922,2.03613 0.275803,0.2758 -3.651137,4.14278 -4.207021,4.14278 -0.258303,0 -0.469642,-0.0369 -0.469642,-0.0819 z M 17.846071,185.60478 c -1.193691,-3.27142 -1.315117,-3.46027 -2.335828,-3.63271 -0.53966,-0.0912 -1.319793,-0.037 -1.733628,0.1203 -0.413836,0.15734 -0.78972,0.24878 -0.835298,0.2032 -0.04558,-0.0456 0.435885,-1.03117 1.069918,-2.19022 1.143539,-2.09044 1.322555,-2.22711 2.447322,-1.86853 0.491292,0.15663 0.667943,0.019 1.124479,-0.87585 0.297893,-0.58392 0.541623,-1.34562 0.541623,-1.69266 0,-0.34705 0.232966,-0.84183 0.517702,-1.09951 0.510735,-0.46221 0.504773,-0.48858 -0.443027,-1.95924 -1.013135,-1.57203 -1.145455,-2.51981 -0.496881,-3.55903 0.198235,-0.31764 1.944803,-5.02217 3.881262,-10.45452 2.967546,-8.32486 3.471342,-9.95625 3.20589,-10.38131 -0.543748,-0.87067 -0.366552,-1.4472 0.584142,-1.90055 0.705432,-0.3364 0.992055,-0.70865 1.330716,-1.72826 0.26866,-0.80886 0.667489,-1.42575 1.056307,-1.63384 0.38777,-0.20752 1.210728,-1.47718 2.169975,-3.34782 1.116425,-2.17716 1.679378,-3.01351 2.028409,-3.01351 0.344749,0 0.744019,-0.57253 1.394101,-1.99904 0.501043,-1.09946 0.910988,-2.18217 0.910988,-2.40602 0,-0.22384 0.20836,-0.46188 0.463021,-0.52897 0.986211,-0.25983 1.559719,-2.68277 1.744262,-7.3691 0.02933,-0.74476 0.218116,-1.20125 0.637173,-1.5407 0.438134,-0.3549 0.55291,-0.65205 0.434338,-1.12448 -0.13244,-0.52769 -0.06175,-0.64211 0.39669,-0.64211 0.394835,0 0.55785,0.16661 0.55785,0.57017 0,0.5203 0.04051,0.53489 0.463021,0.16682 0.254661,-0.22185 0.611849,-0.34944 0.79375,-0.28354 0.405979,0.14707 0.426707,-0.3089 0.04635,-1.01961 -0.237013,-0.44286 -0.193997,-0.555 0.258262,-0.67327 0.423603,-0.11077 0.488098,-0.24381 0.294006,-0.60648 -0.311033,-0.58117 0.244179,-2.18602 0.696257,-2.01254 0.173237,0.0665 0.382355,-0.0547 0.464705,-0.26932 0.08256,-0.21514 -0.02985,-0.45909 -0.250571,-0.54379 -0.26647,-0.10225 -0.342514,-0.33568 -0.227455,-0.69819 0.260828,-0.8218 1.80984,-2.30317 2.408333,-2.30317 0.290168,0 0.751065,-0.24695 1.024216,-0.54878 0.323957,-0.35797 0.713449,-0.50733 1.120194,-0.42958 0.385542,0.0737 0.679125,-0.0256 0.769136,-0.26017 0.08007,-0.20866 0.313318,-0.31501 0.518329,-0.23634 0.205012,0.0787 0.440511,-0.0336 0.523332,-0.24938 0.08282,-0.21583 0.42775,-0.39242 0.76651,-0.39242 1.076768,0 2.047119,-0.52222 3.468949,-1.86693 0.76069,-0.71944 1.55393,-1.30807 1.76275,-1.30807 0.20882,0 0.55208,-0.35599 0.7628,-0.79109 0.58124,-1.20012 3.11051,-2.87013 5.24109,-3.46054 2.25135,-0.62389 3.17312,-0.65523 3.17312,-0.10789 0,0.35695 0.068,0.35847 0.59531,0.0134 0.72548,-0.47479 1.48353,-0.39412 1.92122,0.20445 0.17966,0.2457 0.49061,0.38454 0.691,0.30853 0.21196,-0.0804 0.58566,0.19772 0.89351,0.66499 0.29104,0.44176 0.92094,1.03649 1.39977,1.32163 0.73742,0.43911 0.82849,0.59711 0.59531,1.0328 -0.48659,0.90921 -0.31694,1.04703 1.24607,1.01227 1.09948,-0.0245 1.83025,0.12675 2.63529,0.54528 1.32333,0.68798 1.98904,0.72519 2.85249,0.15944 0.35228,-0.23083 0.7703,-0.33947 0.92892,-0.24143 0.15863,0.098 0.87679,0.0973 1.59591,-0.002 1.16256,-0.1599 1.37028,-0.29153 1.87384,-1.1875 0.36296,-0.6458 0.81544,-1.06073 1.26,-1.15542 0.45168,-0.0962 0.8321,-0.4515 1.09053,-1.01848 0.30007,-0.65832 0.88491,-1.12885 2.3977,-1.92904 1.10046,-0.58208 3.00546,-1.78736 4.23334,-2.6784 1.22787,-0.891043 3.27029,-2.294918 4.53871,-3.11973 1.26841,-0.824812 2.372073,-1.606224 2.452573,-1.736472 0.0805,-0.130247 1.03944,-0.435506 2.13099,-0.678353 2.185696,-0.48627 5.536366,-0.433261 6.844976,0.108291 l 0.77017,0.318724 -0.88437,0.912444 c -0.99264,1.024143 -0.8819,1.61373 0.12536,0.667455 0.85676,-0.804876 1.58928,-0.560324 1.35936,0.453819 l -0.16439,0.725139 0.52607,-0.615818 c 0.28935,-0.3387 0.7513,-0.925001 1.02658,-1.302892 l 0.5005,-0.687074 1.25065,0.732932 c 0.89235,0.52295 1.21077,0.858321 1.11143,1.1706 -0.43549,1.369018 -0.47863,1.628132 -0.27082,1.626622 0.12611,-9.2e-4 0.43212,-0.358109 0.68001,-0.793752 0.24789,-0.435642 0.63995,-0.792077 0.87125,-0.792077 0.23129,0 1.0405,0.462847 1.79824,1.028549 0.75774,0.5657 1.88212,1.281683 2.49863,1.591063 0.78636,0.39462 1.28883,0.89707 1.6835,1.68343 0.30943,0.61651 0.7816,1.36067 1.04927,1.6537 0.26767,0.29302 0.68331,1.00338 0.92364,1.57856 0.24032,0.57518 0.96038,1.7793 1.60012,2.67582 1.31297,1.83995 1.52963,3.06789 0.6266,3.55118 -0.29512,0.15794 -0.46617,0.4011 -0.38011,0.54034 0.0861,0.13925 -0.0297,0.32461 -0.25717,0.41191 -0.2275,0.0873 -0.41364,0.44973 -0.41364,0.80538 0,0.92693 1.59497,1.5847 2.96517,1.22285 0.53944,-0.14246 1.39462,-0.18763 1.9004,-0.10038 0.99777,0.17213 2.27818,1.12925 2.27818,1.70298 0,0.19646 0.60117,0.86412 1.33594,1.48369 1.32655,1.11856 1.34191,1.1236 2.18282,0.71607 0.77988,-0.37796 0.91108,-0.37256 1.65877,0.0683 0.44654,0.2633 1.37609,0.56334 2.06564,0.66674 1.01412,0.15208 1.34791,0.34285 1.7464,0.99811 l 0.49265,0.8101 0.78903,-1.55618 c 1.04531,-2.06163 2.14008,-2.71358 5.34576,-3.18349 0.86294,-0.12649 0.96675,-0.0652 1.38906,0.82042 0.25104,0.52642 0.45643,1.27269 0.45643,1.65837 0,1.30485 1.04165,2.94121 2.66976,4.19401 0.85803,0.66024 1.6841,1.43221 1.83571,1.71549 0.1516,0.28328 0.45774,0.51506 0.68031,0.51506 0.22256,0 0.99922,0.25577 1.72589,0.56838 1.07467,0.46231 1.43735,0.79752 1.94345,1.79625 0.50674,1.00001 1.15447,1.5978 3.49031,3.22123 2.46206,1.71115 3.11158,2.03635 4.5879,2.29703 0.96262,0.16997 2.56235,0.23211 3.63353,0.14114 1.81538,-0.15417 1.90611,-0.19289 1.76544,-0.75337 -0.15762,-0.62798 0.7188,-1.44957 1.95642,-1.83401 0.33468,-0.10396 1.01532,-0.59583 1.51253,-1.09305 0.8175,-0.8175 1.05681,-0.90718 2.50034,-0.93709 0.87798,-0.0182 1.74515,-0.0533 1.92705,-0.078 0.1819,-0.0247 0.62266,0.13865 0.97946,0.36308 0.60064,0.37781 0.63558,0.37379 0.47132,-0.0542 -0.23849,-0.62152 -0.0558,-0.59434 2.45852,0.3658 1.66815,0.637 2.21631,0.75087 2.37542,0.49342 0.2697,-0.43639 0.79289,0.49459 0.79289,1.4109 0,0.3578 0.17859,0.71908 0.39687,0.80284 0.21828,0.0838 0.39697,0.3644 0.39709,0.62362 3.9e-4,0.88488 1.52193,3.72222 2.09331,3.90357 0.69868,0.22175 0.70937,0.56601 0.0231,0.74546 -0.74192,0.19402 -0.65923,0.93376 0.14537,1.30035 0.5186,0.2363 0.88539,0.23109 1.5867,-0.0225 0.86027,-0.31107 1.09964,-0.24753 4.20638,1.11658 1.99908,0.87776 4.35985,2.18465 6.00471,3.32413 2.93116,2.03057 3.18474,2.364 0.78823,1.03642 -1.48914,-0.82492 -2.71148,-0.90838 -2.23757,-0.15277 0.11473,0.18293 0.17602,0.53093 0.1362,0.77335 -0.0398,0.24241 0.11119,0.88013 0.33558,1.41717 0.49296,1.17981 0.32971,1.53157 -0.61453,1.32418 -0.69558,-0.15278 -0.75308,-0.0614 -2.64043,4.195 -1.27509,2.87563 -1.90022,4.60566 -1.84343,5.10162 0.0844,0.73705 0.11899,0.75165 1.938,0.81774 2.99766,0.10891 3.04271,0.13313 3.04271,1.63549 0,0.7127 0.12963,1.33904 0.28807,1.39185 0.17602,0.0587 0.0988,0.31941 -0.19844,0.67034 -0.36221,0.42759 -0.67239,0.536 -1.21411,0.42435 -0.62359,-0.12853 -0.7276,-0.28002 -0.7276,-1.05967 v -0.90969 l -1.25677,0.0806 c -1.23227,0.0791 -1.25518,0.0966 -1.17481,0.9012 l 0.082,0.82055 -1.64213,0.17163 c -0.90317,0.0944 -2.04138,0.17164 -2.52936,0.17164 -0.61226,0 -0.88723,0.123 -0.88723,0.39688 0,0.46497 -0.30611,0.51409 -0.70678,0.11342 -0.20155,-0.20155 -0.45262,-0.0678 -0.86889,0.46302 -1.31655,1.6787 -2.64495,1.79656 -5.48084,0.4863 -1.82444,-0.84294 -2.04259,-0.88812 -2.55507,-0.52917 -0.30818,0.21586 -0.87987,0.39247 -1.27043,0.39247 -0.5671,0 -0.68367,-0.10113 -0.57881,-0.50212 0.0722,-0.27617 0.007,-0.73437 -0.1449,-1.01823 -0.23388,-0.43701 -0.45191,-0.48945 -1.42253,-0.34215 -0.63047,0.0957 -1.30409,0.27148 -1.49694,0.39067 -0.20249,0.12514 -0.42693,0.0933 -0.53121,-0.0755 -0.12987,-0.21012 -0.46484,-0.21369 -1.19277,-0.0127 -0.67155,0.18543 -1.1008,0.19087 -1.27551,0.0162 -0.1747,-0.1747 -0.67261,-0.0879 -1.47952,0.25801 -0.67157,0.28787 -1.48345,0.45425 -1.81298,0.37154 -0.39651,-0.0995 -1.03126,0.11756 -1.89146,0.64684 -0.99057,0.60951 -1.6083,0.79662 -2.62989,0.79662 -0.9425,0 -2.37357,0.38165 -4.86553,1.29758 -1.94167,0.71367 -4.60187,1.49598 -5.91156,1.73847 -1.30969,0.24249 -2.588,0.55155 -2.84068,0.6868 -0.25269,0.13525 -0.74371,0.2459 -1.09116,0.2459 -0.34744,0 -1.15273,0.28426 -1.78952,0.63169 -0.6368,0.34743 -2.22937,0.90538 -3.53906,1.23989 -1.30969,0.33451 -2.82537,0.88369 -3.36818,1.2204 -0.54281,0.3367 -1.24766,0.61219 -1.56634,0.61219 -0.31867,0 -1.27469,0.44649 -2.12448,0.99219 -1.39755,0.89745 -1.53019,1.06166 -1.3892,1.71979 0.11193,0.52249 0.0511,0.7276 -0.21591,0.7276 -0.20447,0 -0.65141,0.29766 -0.99318,0.66146 -0.34177,0.3638 -0.87986,0.66146 -1.19574,0.66146 -0.67006,0 -1.58143,0.89636 -1.32811,1.30625 0.0956,0.15469 -0.009,0.28125 -0.23187,0.28125 -0.22313,0 -0.57671,-0.32742 -0.78574,-0.7276 -0.20903,-0.40019 -0.75923,-1.0848 -1.22267,-1.52136 -1.11819,-1.05332 -2.6442,-4.10343 -2.6442,-5.28506 v -0.93265 h 1.43959 c 1.64116,0 1.95995,-0.27935 1.36134,-1.19295 -0.23083,-0.35228 -0.41968,-0.81056 -0.41968,-1.01839 0,-0.43597 -0.64021,-0.74627 -1.12448,-0.54502 -0.1819,0.0756 -0.74674,0.69694 -1.25519,1.38076 -0.88254,1.18693 -0.9207,1.32912 -0.84149,3.13567 l 0.083,1.89235 -1.27518,0.25523 c -0.70135,0.14037 -1.75831,0.20122 -2.34879,0.13522 l -1.0736,-0.11999 -0.0239,1.412 c -0.0226,1.33417 0.24022,2.07346 0.73717,2.07346 0.12157,0 0.54164,-0.54708 0.9335,-1.21573 0.65817,-1.12309 0.77489,-1.20324 1.53175,-1.05187 0.75154,0.15031 3.21575,1.2977 3.65127,1.70012 0.10155,0.0938 0.36994,0.61447 0.59643,1.15697 l 0.4118,0.98637 -2.51467,1.89014 c -1.38306,1.03958 -2.51466,1.97088 -2.51466,2.06957 0,0.0987 0.14288,0.3223 0.3175,0.49693 0.22681,0.22681 0.2361,0.3989 0.0325,0.60247 -0.20356,0.20356 -0.44541,0.0596 -0.84666,-0.50387 -0.30894,-0.43386 -0.5617,-0.90797 -0.5617,-1.05358 0,-0.26832 -2.34828,-1.75984 -2.51139,-1.59512 -0.0487,0.0492 -0.12835,1.1908 -0.17694,2.53687 -0.0486,1.34607 -0.16869,2.44739 -0.26691,2.44739 -0.0982,0 -0.66023,-0.56346 -1.2489,-1.25215 -0.83685,-0.97903 -1.14007,-1.18238 -1.39016,-0.93229 -0.2501,0.25009 -0.22312,0.42676 0.12368,0.80996 0.24394,0.26956 0.44354,0.57003 0.44354,0.66771 0,0.41608 -0.55458,0.10331 -1.7962,-1.01302 -1.23563,-1.11094 -1.42317,-1.19062 -2.80208,-1.19062 -1.25955,0 -1.73321,0.15631 -3.20693,1.05833 -1.25492,0.76809 -2.01808,1.05833 -2.78279,1.05833 -0.57952,0 -1.05367,-0.11906 -1.05367,-0.26458 0,-0.14552 -0.34113,-0.26458 -0.75807,-0.26458 -0.41694,0 -1.08047,-0.2536 -1.47451,-0.56355 -0.60469,-0.47566 -0.80877,-0.51413 -1.30845,-0.24671 -0.32561,0.17426 -0.941116,0.27903 -1.367796,0.23282 -0.59603,-0.0645 -0.83675,0.0539 -1.03892,0.51129 -0.14473,0.32742 -0.34139,0.59531 -0.43701,0.59531 -0.22198,0 -1.46555,-1.2714 -2.4387,-2.49328 -0.41451,-0.52046 -0.973033,-0.9463 -1.241153,-0.9463 -0.26812,0 -0.55787,-0.11386 -0.64388,-0.25303 -0.086,-0.13916 -0.33097,-0.18603 -0.54436,-0.10414 -0.21339,0.0819 -1.60857,-0.53624 -3.10038,-1.37362 -1.49182,-0.83738 -2.78902,-1.56361 -2.88266,-1.61385 -0.0936,-0.0502 -1.0196,1.26925 -2.05767,2.9322 l -1.8874,3.02354 -5.21838,-3.31851 c -2.8701,-1.82519 -5.31992,-3.41316 -5.44404,-3.52883 -0.34253,-0.31921 1.96102,-3.43668 2.53942,-3.43668 0.26939,0 1.14639,0.42002 1.9489,0.93338 0.83501,0.53415 1.96389,1.00257 2.63927,1.09514 0.96615,0.13243 1.15363,0.24537 1.03384,0.62279 -0.16111,0.50761 0.64109,0.98757 0.91361,0.54662 0.10066,-0.16287 0.30569,-0.16771 0.55032,-0.013 0.21444,0.13561 0.46008,0.24839 0.54586,0.25062 0.13586,0.004 0.77007,-1.18115 0.77007,-1.43847 0,-0.0521 -0.56554,-0.4236 -1.25677,-0.82559 -0.69122,-0.40199 -1.70811,-1.01318 -2.25975,-1.3582 l -1.00299,-0.6273 0.58489,-0.8214 0.58489,-0.82141 -1.26609,-1.19624 c -0.77632,-0.73349 -1.54558,-1.81915 -1.98858,-2.80648 -0.77793,-1.7338 -1.10122,-2.09904 -2.12685,-2.4029 -0.3638,-0.10778 -0.87054,-0.37959 -1.1261,-0.60402 -0.25555,-0.22443 -0.49368,-0.35918 -0.52916,-0.29944 -0.70964,1.19463 -0.76138,1.37844 -0.44332,1.57501 0.1823,0.11266 0.54163,0.0736 0.79853,-0.0869 0.58157,-0.3632 1.76765,0.11124 2.00249,0.801 0.0871,0.25592 0.44098,1.08301 0.78633,1.83798 0.34534,0.75498 0.6279,1.49912 0.6279,1.65365 0,0.60181 -3.45094,0.28489 -7.21245,-0.66237 -2.96597,-0.74693 -3.87455,-0.88475 -4.36361,-0.66192 -0.76735,0.34963 -2.23177,-0.32405 -4.12051,-1.89556 -1.61954,-1.34753 -2.98589,-1.69297 -4.27147,-1.07992 -0.62047,0.29588 -0.93526,0.62881 -0.93766,0.99172 -0.009,1.33322 -0.29188,1.73693 -1.21787,1.73693 -0.7234,0 -0.89518,-0.10313 -0.89518,-0.53747 0,-0.29561 -0.20836,-0.61072 -0.46302,-0.70024 -0.25466,-0.0895 -0.7892,-0.46406 -1.18787,-0.8323 -0.99447,-0.91859 -1.18676,-0.56544 -0.35701,0.65565 0.94764,1.39457 0.91975,2.20811 -0.0757,2.20811 -0.6403,0 -0.78685,-0.13085 -0.92605,-0.82682 -0.091,-0.45475 -0.16915,-1.19889 -0.17377,-1.65364 -0.008,-0.78428 -0.0284,-0.8004 -0.39688,-0.31324 -0.21365,0.28248 -0.38846,0.96482 -0.38846,1.51632 0,0.84891 -0.10146,1.02818 -0.661459,1.16873 -0.41769,0.10484 -0.661458,0.35288 -0.661458,0.67305 0,0.30082 -0.276031,0.61198 -0.678683,0.76507 -0.833466,0.31688 -0.908817,0.31872 -0.908817,0.0221 0,-0.12974 0.306114,-0.31273 0.680254,-0.40663 1.086866,-0.27279 0.615912,-0.82504 -0.618837,-0.72567 l -1.081071,0.087 -0.176724,-1.27763 c -0.292841,-2.1171 -0.537503,-2.86513 -0.937108,-2.86513 -0.309348,0 -0.362994,0.4505 -0.28835,2.42145 0.08745,2.30894 0.06436,2.43013 -0.496743,2.60822 -0.853603,0.27092 -2.651258,-1.57074 -2.88395,-2.95455 -0.157807,-0.93847 -0.231177,-1.01015 -0.952562,-0.93057 -0.429872,0.0474 -0.799383,0.10695 -0.821135,0.13229 -0.02175,0.0253 0.04469,0.59127 0.147655,1.25762 0.121516,0.78643 0.503511,1.60515 1.088652,2.33328 l 0.90145,1.12174 -1.97712,1.82366 c -1.817593,1.67653 -3.06163,2.51335 -2.011748,1.35324 0.467804,-0.51691 0.338983,-1.36118 -0.207693,-1.36118 -0.174899,0 -0.549114,0.17481 -0.831588,0.38846 -0.282475,0.21366 -0.585032,0.39225 -0.67235,0.39688 -0.08732,0.005 -0.783379,-0.70973 -1.546804,-1.58746 -1.103035,-1.26818 -1.325373,-1.67138 -1.082822,-1.96364 0.232008,-0.27955 0.222846,-0.49968 -0.0382,-0.91767 -0.383246,-0.61367 -0.759514,-0.69443 -1.197034,-0.25691 -0.214263,0.21426 -0.377804,0.13451 -0.608642,-0.29681 -0.287587,-0.53737 -0.168206,-0.73858 1.3427,-2.26303 1.363057,-1.37528 1.601527,-1.7417 1.339221,-2.05776 -0.268842,-0.32393 -0.533771,-0.15758 -1.681197,1.05565 l -1.362065,1.44019 -0.802958,-0.80296 -0.802957,-0.80296 1.297517,-1.31732 c 1.281025,-1.30059 1.291237,-1.32427 0.803415,-1.8633 l -0.494101,-0.54598 -1.405238,1.38778 -1.405239,1.38778 -1.157955,-1.13644 -1.157955,-1.13645 -0.562862,0.79047 c -0.728254,1.02273 -0.710576,1.26443 0.165452,2.26217 1.023839,1.16609 5.621686,9.99184 5.621686,10.79105 0,1.10134 -1.01538,1.81076 -2.591699,1.81076 -1.538507,0 -1.576338,0.0558 -1.704787,2.51355 l -0.06914,1.32291 -3.902604,1.90885 -3.902605,1.90886 v 0.93541 c 0,1.15519 -0.678667,1.28671 -1.072338,0.20782 z"
       id="path1" /></g></svg>
